<svg xmlns="http://www.w3.org/2000/svg" style="display: none;">
    <symbol id="icon-eth" viewBox="-98 0 512 512">
        <path d="M311.9 260.8L160 353.6 8 260.8 160 0l151.9 260.8zM160 383.4L8 290.6 160 512l152-221.4-152 92.8z"/>
    </symbol>

    <symbol id="icon-close" viewBox="-98 0 512 512">
        <path d="M342.6 150.6c12.5-12.5 12.5-32.8 0-45.3s-32.8-12.5-45.3 0L192 210.7 86.6 105.4c-12.5-12.5-32.8-12.5-45.3 0s-12.5 32.8 0 45.3L146.7 256 41.4 361.4c-12.5 12.5-12.5 32.8 0 45.3s32.8 12.5 45.3 0L192 301.3 297.4 406.6c12.5 12.5 32.8 12.5 45.3 0s12.5-32.8 0-45.3L237.3 256 342.6 150.6z"/>
    </symbol>

    <symbol id="icon-spin" viewBox="0 0 512 512">
        <path d="M0 256a256 256 0 1 1 512 0A256 256 0 1 1 0 256zm256 32a32 32 0 1 1 0-64 32 32 0 1 1 0 64zm-96-32a96 96 0 1 0 192 0 96 96 0 1 0 -192 0zM96 240c0-35 17.5-71.1 45.2-98.8S205 96 240 96c8.8 0 16-7.2 16-16s-7.2-16-16-16c-45.4 0-89.2 22.3-121.5 54.5S64 194.6 64 240c0 8.8 7.2 16 16 16s16-7.2 16-16z"/>
    </symbol>
</svg>