<svg xmlns="http://www.w3.org/2000/svg" style="display: none;">
    <symbol id="icon-eth" viewBox="-98 0 512 512">
        <path d="M311.9 260.8L160 353.6 8 260.8 160 0l151.9 260.8zM160 383.4L8 290.6 160 512l152-221.4-152 92.8z"/>
    </symbol>

    <symbol id="icon-close" viewBox="-98 0 512 512">
        <path d="M342.6 150.6c12.5-12.5 12.5-32.8 0-45.3s-32.8-12.5-45.3 0L192 210.7 86.6 105.4c-12.5-12.5-32.8-12.5-45.3 0s-12.5 32.8 0 45.3L146.7 256 41.4 361.4c-12.5 12.5-12.5 32.8 0 45.3s32.8 12.5 45.3 0L192 301.3 297.4 406.6c12.5 12.5 32.8 12.5 45.3 0s12.5-32.8 0-45.3L237.3 256 342.6 150.6z"/>
    </symbol>

    <symbol id="icon-spin" viewBox="0 0 512 512">
        <path d="M222.7 32.1c5 16.9-4.6 34.8-21.5 39.8C121.8 95.6 64 169.1 64 256c0 106 86 192 192 192s192-86 192-192c0-86.9-57.8-160.4-137.1-184.1c-16.9-5-26.6-22.9-21.5-39.8s22.9-26.6 39.8-21.5C434.9 42.1 512 140 512 256c0 141.4-114.6 256-256 256S0 397.4 0 256C0 140 77.1 42.1 182.9 10.6c16.9-5 34.8 4.6 39.8 21.5z"/>
    </symbol>
</svg>